<?xml version="1.0" encoding="utf-8"?><svg xmlns="http://www.w3.org/2000/svg" xmlns:xlink="http://www.w3.org/1999/xlink"><symbol viewBox="0 0 25.18 16.164" id="arrow_down" xmlns="http://www.w3.org/2000/svg"><path d="M13.293 15.871a.99.99 0 0 1-1.406 0L.293 4.293a1.009 1.009 0 0 1 0-1.422L2.887.293a.99.99 0 0 1 1.406 0L12.59 8.59 20.887.293a.99.99 0 0 1 1.406 0l2.594 2.578a1.009 1.009 0 0 1 0 1.422L13.293 15.871z"/></symbol><symbol viewBox="0 0 22.012 17.295" id="envelope" xmlns="http://www.w3.org/2000/svg"><path d="M19.911 5.331c-1.916 1.327-3.845 2.653-5.748 3.992-.799.553-2.15 1.683-3.145 1.683h-.025c-.995 0-2.346-1.13-3.145-1.683-1.903-1.339-3.831-2.665-5.735-3.992C1.241 4.741 0 3.354 0 2.235 0 1.032.651 0 1.965 0h18.082c1.068 0 1.965.884 1.965 1.965 0 1.376-1.02 2.617-2.101 3.366zm2.101 9.999c0 1.08-.885 1.965-1.965 1.965H1.965A1.971 1.971 0 0 1 0 15.33V5.577c.369.405.786.762 1.241 1.069 2.039 1.388 4.103 2.776 6.104 4.237 1.032.762 2.31 1.695 3.648 1.695h.025c1.339 0 2.616-.934 3.647-1.695 2.003-1.449 4.066-2.85 6.117-4.237a7.28 7.28 0 0 0 1.229-1.069v9.753z"/></symbol><symbol viewBox="0 0 26 22" id="github" xmlns="http://www.w3.org/2000/svg"><path d="M25.047 17.422C22.984 21.594 17.313 22 13.25 22 9.125 22 3.109 21.641.969 17.422.172 15.844 0 13.984 0 12.25c0-2.281.625-4.438 2.125-6.188a8.585 8.585 0 0 1-.422-2.656c0-1.172.266-2.343.797-3.406 2.469 0 4.047 1.078 5.922 2.547A20.895 20.895 0 0 1 13.25 2c1.469 0 2.953.156 4.375.5C19.484 1.047 21.063 0 23.5 0a7.629 7.629 0 0 1 .797 3.406c0 .891-.141 1.781-.422 2.625C25.375 7.797 26 9.969 26 12.25c0 1.734-.172 3.578-.953 5.172zM18.5 10.5c-1.031 0-2.016.188-3.047.328-.812.125-1.625.172-2.453.172s-1.641-.047-2.453-.172c-1.016-.14-2.016-.328-3.047-.328-2.547 0-4 2.109-4 4.5 0 4.781 4.375 5.516 8.188 5.516h2.625c3.813 0 8.188-.734 8.188-5.516-.001-2.391-1.454-4.5-4.001-4.5zM8 18c-1.406 0-2-1.859-2-3s.594-3 2-3 2 1.859 2 3-.594 3-2 3zm10 0c-1.406 0-2-1.859-2-3s.594-3 2-3 2 1.859 2 3-.594 3-2 3z"/></symbol><symbol viewBox="0 0 50 50" id="github_round" xmlns="http://www.w3.org/2000/svg"><path d="M30.5 24.5c-1.031 0-2.016.188-3.047.328-.812.125-1.625.172-2.453.172s-1.641-.047-2.453-.172c-1.016-.14-2.016-.328-3.047-.328-2.547 0-4 2.109-4 4.5 0 4.781 4.375 5.516 8.188 5.516h2.625c3.813 0 8.188-.734 8.188-5.516-.001-2.391-1.454-4.5-4.001-4.5zM20 32c-1.406 0-2-1.859-2-3s.594-3 2-3 2 1.859 2 3-.594 3-2 3zm10 0c-1.406 0-2-1.859-2-3s.594-3 2-3 2 1.859 2 3-.594 3-2 3z"/><path d="M25 0C11.192 0 0 11.193 0 25s11.192 25 25 25 25-11.193 25-25S38.808 0 25 0zm12.047 31.422C34.984 35.594 29.313 36 25.25 36c-4.125 0-10.141-.359-12.281-4.578-.797-1.578-.969-3.438-.969-5.172 0-2.281.625-4.438 2.125-6.188a8.59 8.59 0 0 1-.422-2.656c0-1.172.266-2.344.797-3.406 2.469 0 4.047 1.078 5.922 2.547A20.895 20.895 0 0 1 25.25 16c1.469 0 2.953.156 4.375.5 1.859-1.453 3.438-2.5 5.875-2.5a7.629 7.629 0 0 1 .797 3.406c0 .891-.141 1.781-.422 2.625C37.375 21.797 38 23.969 38 26.25c0 1.734-.172 3.578-.953 5.172z"/></symbol><symbol viewBox="0 0 24 22.938" id="in" xmlns="http://www.w3.org/2000/svg"><path d="M2.875 5.344h-.031C1.109 5.344 0 4.156 0 2.672 0 1.156 1.156 0 2.906 0c1.766 0 2.859 1.156 2.875 2.672.016 1.484-1.109 2.672-2.906 2.672zm2.578 17.594H.297V7.453h5.156v15.485zm18.547 0h-5.141v-8.281c0-2.078-.75-3.5-2.609-3.5-1.422 0-2.266.953-2.641 1.875-.125.344-.172.797-.172 1.266v8.641h-5.14c.063-14.031 0-15.484 0-15.484h5.141v2.25h-.031c.672-1.063 1.891-2.609 4.672-2.609 3.391 0 5.922 2.219 5.922 6.969v8.873z"/></symbol><symbol viewBox="0 0 50 50" id="in_round" xmlns="http://www.w3.org/2000/svg"><path d="M25 0C11.192 0 0 11.193 0 25s11.192 25 25 25 25-11.193 25-25S38.808 0 25 0zm-5.547 34.136h-5.156V18.651h5.156v15.485zm-2.578-17.594h-.031C15.11 16.542 14 15.354 14 13.87c0-1.516 1.156-2.672 2.906-2.672 1.766 0 2.859 1.156 2.875 2.672.016 1.484-1.109 2.672-2.906 2.672zM38 34.136h-5.141v-8.281c0-2.078-.75-3.5-2.609-3.5-1.422 0-2.266.953-2.641 1.875-.125.344-.172.797-.172 1.266v8.641h-5.141c.063-14.031 0-15.484 0-15.484h5.141v2.204c.678-1.061 1.898-2.563 4.641-2.563 3.391 0 5.922 2.219 5.922 6.969v8.873z"/></symbol><symbol viewBox="0 0 19.125 19.125" id="link" xmlns="http://www.w3.org/2000/svg"><path d="M18.129 16.441l-1.723 1.711a3.35 3.35 0 0 1-2.379.973 3.335 3.335 0 0 1-2.391-.996l-2.414-2.426a3.353 3.353 0 0 1-.972-2.379 3.43 3.43 0 0 1 1.031-2.449L8.25 9.844a3.407 3.407 0 0 1-2.438 1.031 3.392 3.392 0 0 1-2.391-.984L.984 7.453A3.34 3.34 0 0 1 0 5.063c0-.891.363-1.758.996-2.379L2.719.973A3.35 3.35 0 0 1 5.098 0C6 0 6.855.352 7.488.996l2.414 2.426a3.35 3.35 0 0 1 .973 2.379A3.43 3.43 0 0 1 9.844 8.25l1.031 1.031a3.407 3.407 0 0 1 2.438-1.031c.891 0 1.758.352 2.391.984l2.438 2.438c.645.645.984 1.488.984 2.391a3.356 3.356 0 0 1-.997 2.378zM8.309 5.004L5.895 2.578c-.211-.211-.504-.328-.797-.328s-.586.117-.797.316L2.578 4.277a1.116 1.116 0 0 0 0 1.583l2.438 2.438c.211.21.504.315.797.315.34 0 .609-.117.844-.363-.387-.387-.844-.715-.844-1.312 0-.621.504-1.125 1.125-1.125.598 0 .926.457 1.313.844.246-.234.387-.504.387-.855a1.142 1.142 0 0 0-.329-.798zm8.238 8.262l-2.438-2.438a1.136 1.136 0 0 0-1.641.047c.387.387.844.715.844 1.313 0 .621-.504 1.125-1.125 1.125-.598 0-.926-.457-1.313-.844-.246.234-.387.504-.387.855 0 .293.117.586.328.797l2.414 2.426c.211.211.504.316.797.316s.586-.105.797-.305l1.723-1.711c.211-.211.328-.492.328-.785a1.11 1.11 0 0 0-.327-.796z"/></symbol><symbol viewBox="0 0 15.151 21.654" id="map_marker" xmlns="http://www.w3.org/2000/svg"><path d="M11.004 7.835a3.425 3.425 0 0 0-3.43-3.414c-1.889 0-3.431 1.531-3.431 3.414a3.432 3.432 0 0 0 6.861 0z"/><path d="M7.574 21.654l1.388-1.817c1.455-1.925 6.189-8.469 6.189-12.049C15.151 3.132 12.106 0 7.574 0 3.045 0 0 3.132 0 7.788c0 3.854 5.56 11.223 6.192 12.049l1.382 1.817zM2.792 7.835c0-2.628 2.146-4.77 4.782-4.77 2.64 0 4.785 2.142 4.785 4.77 0 2.63-2.146 4.771-4.785 4.771-2.636-.001-4.782-2.141-4.782-4.771z"/></symbol><symbol viewBox="0 0 18.864 18.863" id="phone" xmlns="http://www.w3.org/2000/svg"><path d="M18.448 16.76c-.281.656-1.031 1.086-1.634 1.42-.791.43-1.595.684-2.492.684-1.246 0-2.371-.51-3.51-.924a12.587 12.587 0 0 1-2.345-1.112c-2.278-1.407-5.024-4.153-6.431-6.431A12.617 12.617 0 0 1 .924 8.052C.509 6.913 0 5.788 0 4.542 0 3.644.254 2.84.683 2.05c.335-.603.764-1.353 1.42-1.634C2.545.214 3.483 0 3.965 0c.095 0 .188 0 .282.04.281.094.576.75.71 1.019.429.764.844 1.541 1.286 2.291.214.349.616.777.616 1.192 0 .817-2.425 2.01-2.425 2.733 0 .361.335.831.522 1.152 1.353 2.438 3.041 4.126 5.479 5.479.322.188.791.522 1.152.522.724 0 1.916-2.425 2.733-2.425.415 0 .844.402 1.192.616.75.442 1.527.857 2.291 1.286.268.134.924.429 1.018.71.041.094.041.188.041.281.002.484-.213 1.422-.414 1.864z"/></symbol><symbol viewBox="0 0 42.736 27.435" id="portf_arrow_down" xmlns="http://www.w3.org/2000/svg"><path d="M22.563 26.938a1.68 1.68 0 0 1-2.387 0L.498 7.286a1.712 1.712 0 0 1 0-2.413L4.9.497a1.68 1.68 0 0 1 2.387 0l14.082 14.082L35.45.497a1.682 1.682 0 0 1 2.388 0l4.401 4.376c.663.663.663 1.75 0 2.413L22.563 26.938z"/></symbol><symbol viewBox="0 0 42.736 27.435" id="portf_arrow_up" xmlns="http://www.w3.org/2000/svg"><path d="M42.239 20.149c.663.662.663 1.75 0 2.413l-4.401 4.376a1.684 1.684 0 0 1-2.388 0L21.369 12.856 7.287 26.938a1.683 1.683 0 0 1-2.387 0L.498 22.562a1.712 1.712 0 0 1 0-2.413L20.175.498a1.68 1.68 0 0 1 2.387 0l19.677 19.651z"/></symbol><symbol viewBox="0 0 24 24" id="skype" xmlns="http://www.w3.org/2000/svg"><path d="M18 24a5.976 5.976 0 0 1-3.656-1.25c-.75.156-1.547.25-2.344.25-6.078 0-11-4.922-11-11 0-.797.094-1.594.25-2.344A5.976 5.976 0 0 1 0 6c0-3.313 2.688-6 6-6 1.375 0 2.641.469 3.656 1.25C10.406 1.094 11.203 1 12 1c6.078 0 11 4.922 11 11 0 .797-.094 1.594-.25 2.344A5.976 5.976 0 0 1 24 18a6 6 0 0 1-6 6zm-4.531-13.547l-1.625-.375c-1.188-.281-2.078-.484-2.078-1.391 0-.828.875-1.203 2.25-1.203 2.453 0 2.5 1.797 4.016 1.797 1.016 0 1.625-.797 1.625-1.703 0-1.797-2.984-2.969-5.938-2.969-2.703 0-5.844 1.172-5.844 4.344 0 2.625 1.75 3.563 4.031 4.109l2.281.563c1.391.344 2.25.5 2.25 1.5 0 .797-.891 1.406-2.266 1.406-2.891 0-3.047-2.406-4.719-2.406-1.094 0-1.578.781-1.578 1.641 0 1.922 2.938 3.484 6.453 3.484 2.938 0 6-1.469 6-4.641.001-2.718-2.639-3.656-4.858-4.156z"/></symbol><symbol viewBox="0 0 30.011 17.123" id="vk" xmlns="http://www.w3.org/2000/svg"><path d="M27.625 5.832c-3.031 4.031-3.359 3.656-.859 5.984 2.406 2.234 2.906 3.313 2.984 3.453 0 0 1 1.75-1.109 1.766l-4 .063c-.859.172-2-.609-2-.609-1.5-1.031-2.906-3.703-4-3.359 0 0-1.125.359-1.094 2.766.016.516-.234.797-.234.797s-.281.297-.828.344h-1.797c-3.953.25-7.438-3.391-7.438-3.391S3.437 9.707.093 1.848c-.219-.516.016-.766.016-.766S.343.785 1 .785L5.281.754c.406.063.688.281.688.281s.25.172.375.5c.703 1.75 1.609 3.344 1.609 3.344 1.563 3.219 2.625 3.766 3.234 3.438 0 0 .797-.484.625-4.375-.063-1.406-.453-2.047-.453-2.047-.359-.485-1.031-.625-1.328-.672-.234-.031.156-.594.672-.844.766-.375 2.125-.391 3.734-.375 1.266.016 1.625.094 2.109.203 1.484.359.984 1.734.984 5.047 0 1.063-.203 2.547.563 3.031.328.219 1.141.031 3.141-3.375 0 0 .938-1.625 1.672-3.516.125-.344.391-.484.391-.484s.25-.141.594-.094l4.5-.031c1.359-.172 1.578.453 1.578.453.234.641-.501 2.141-2.344 4.594z"/></symbol><symbol viewBox="0 0 50 50" id="vk_round" xmlns="http://www.w3.org/2000/svg"><path d="M25 0C11.193 0 0 11.193 0 25s11.193 25 25 25 25-11.193 25-25S38.807 0 25 0zm11.76 28.255c2.406 2.234 2.906 3.313 2.984 3.453 0 0 1 1.75-1.109 1.766l-4 .063c-.859.172-2-.609-2-.609-1.5-1.031-2.906-3.703-4-3.359 0 0-1.125.359-1.094 2.766.016.516-.234.797-.234.797s-.281.297-.828.344h-1.797c-3.953.25-7.438-3.391-7.438-3.391s-3.813-3.938-7.156-11.797c-.219-.516.016-.766.016-.766s.234-.297.891-.297l4.281-.031c.406.063.688.281.688.281s.25.172.375.5c.703 1.75 1.609 3.344 1.609 3.344 1.563 3.219 2.625 3.766 3.234 3.438 0 0 .797-.484.625-4.375-.063-1.406-.453-2.047-.453-2.047-.359-.484-1.031-.625-1.328-.672-.234-.031.156-.594.672-.844.766-.375 2.125-.391 3.734-.375 1.266.016 1.625.094 2.109.203 1.484.359.984 1.734.984 5.047 0 1.063-.203 2.547.563 3.031.328.219 1.141.031 3.141-3.375 0 0 .938-1.625 1.672-3.516.125-.344.391-.484.391-.484s.25-.141.594-.094l4.5-.031c1.359-.172 1.578.453 1.578.453.234.641-.5 2.141-2.344 4.594-3.032 4.03-3.36 3.655-.86 5.983z"/></symbol></svg>